<svg xmlns="http://www.w3.org/2000/svg" viewBox="0 0 170 170" width="120" height="120">
  <path fill="#ffffff" d="M150.4 130.3c-2.4 5.5-5.2 10.6-8.4 15.2-4.4 6.3-8 10.7-10.8 13.1-4.3 4-8.9 6-13.9 6.1-3.6 0-7.9-1-13-3-5.1-2-9.8-3-14.1-3-4.4 0-9.2 1-14.2 3-5.1 2-9.2 3.1-12.3 3.2-4.8.2-9.5-1.9-14.1-6.2-3-2.6-6.8-7.1-11.2-13.6-4.8-7-8.7-15.1-11.8-24.3-3.3-10-5-19.6-5-28.9 0-10.7 2.3-19.9 6.9-27.6 3.6-6.2 8.4-11 14.4-14.6 6-3.6 12.5-5.4 19.4-5.5 3.8 0 8.8 1.2 15.1 3.5 6.2 2.3 10.2 3.5 12 3.5 1.3 0 5.7-1.4 13.1-4.2 7-2.6 12.9-3.7 17.7-3.2 13.1 1.1 22.9 6.2 29.4 15.5-11.7 7.1-17.5 17.1-17.4 29.8.1 9.9 3.7 18.2 10.8 24.7 3.2 3 6.8 5.4 10.7 7-0.9 2.5-1.8 4.9-2.7 7.2zM119.3 7.6c0 7.8-2.8 15-8.5 21.7-6.8 7.9-15 12.5-23.9 11.8-.1-1-.2-2-.2-3 0-7.4 3.3-15.4 9.1-21.9 2.9-3.3 6.6-6 11.1-8.2 4.5-2.2 8.7-3.4 12.7-3.6.1 1.1.2 2.1.2 3.2z"/>
</svg>
