<svg xmlns="http://www.w3.org/2000/svg" viewBox="0 0 256 185" width="150" height="108">
  <g fill="#2496ED">
    <path d="M141.6 81.6h30v-27h-30zm-36 0h30v-27h-30zm-36 0h30v-27h-30zm-36 0h30v-27h-30zm-36 0h30v-27H-2.4zm36-33h30v-27h-30zm36 0h30v-27h-30zm36 0h30v-27h-30zm0-33h30V-12.4h-30z" transform="translate(2.4 42.4)"/>
    <path d="M254 90.3c-5.7-3.8-18.7-5.2-28.7-3.3-1.3-9.5-6.7-17.8-16.4-25.2l-5.6-3.7-3.7 5.6c-7.5 11.2-9.5 29.6-1.5 41.8-3.5 1.9-10.4 4.5-19.5 4.3H.5c-2.8 16.2-.4 37.3 9.3 52 9.3 14 23.2 21.1 41.3 21.1 39.3 0 68.4-18.1 82-50.8 5.4.1 17 0 22.9-11.3.2-.3 1.5-3 4.8-9.8l1.8-3.7-5.6-3.7z" transform="translate(2.4 42.4)" opacity=".9"/>
  </g>
</svg>
